<svg width="25" height="25" fill="none" xmlns="http://www.w3.org/2000/svg"><g clip-path="url(#a)"><path d="M7.306 23.173a4.81 4.81 0 0 0-.135-.946C6.867 21 6.097 19.879 5.147 19.065a2.505 2.505 0 0 0-.112-.093l-.856.834c.66.505 1.137 1.196 1.333 1.841.106.35.136.694.077 1.003a1.371 1.371 0 0 1-.758 1.007c.383.19.744.307 1.056.332.314.026.589-.03.821-.171.222-.134.42-.348.598-.645Zm8.78-8.68a.508.508 0 0 1-.193-.176l-.161.159c.06.038.11.089.149.15.831 1.31 1.31 2.643 1.355 4.002.045 1.365-.348 2.736-1.261 4.12a.501.501 0 1 1-.838-.552c.793-1.2 1.135-2.378 1.096-3.538-.038-1.165-.462-2.33-1.2-3.493l-1.278 1.258-.037-.114-.098.095-5.379 7.16c-.275.502-.613.87-1.013 1.11a2.324 2.324 0 0 1-1.417.314c-.797-.065-1.806-.562-2.751-1.284a.39.39 0 0 1-.086-.067 10.305 10.305 0 0 1-.94-.83C1.36 22.133.774 21.36.412 20.59c-.391-.828-.532-1.664-.275-2.407.165-.476.487-.899 1-1.237l7.54-5.727 4.079-4.352L17.55.277a.51.51 0 0 1 .326-.202 4.622 4.622 0 0 1 2.108.108c1.19.328 2.317 1.072 3.196 2.01.88.94 1.52 2.084 1.739 3.203a3.853 3.853 0 0 1-.045 1.774.5.5 0 0 1-.19.274v.002l-7.215 5.21-.29.283c0 .04-.002.078-.004.116l-.58.572c1.063.555 1.925 1.253 2.555 2.118.644.885 1.042 1.933 1.154 3.166a.502.502 0 0 1-.999.09c-.096-1.047-.426-1.93-.964-2.668-.544-.743-1.305-1.35-2.254-1.84ZM4.194 18.39c-.685-.395-1.402-.62-2.067-.617-.169.003-.336.019-.5.053-.283.2-.458.434-.548.688-.163.47-.05 1.05.235 1.652.312.663.827 1.337 1.427 1.937.25.25.515.488.784.702.463.077.763.032.928-.09a.396.396 0 0 0 .149-.252 1.11 1.11 0 0 0-.051-.527c-.18-.592-.697-1.241-1.405-1.605a.5.5 0 0 1-.12-.804l1.168-1.137Zm9.06-3.03c-.799-1.31-2.254-2.71-3.665-3.653l-.195.21a.58.58 0 0 1-.088.085l-6.38 4.846c.795.15 1.606.518 2.348 1.046l.019.014.002.002c.17.122.338.254.501.392 1.099.94 1.992 2.245 2.346 3.683l.006.024 4.672-6.217a.406.406 0 0 1 .067-.08l.367-.351Zm-.183-7.366c1.816.897 3.33 2.351 3.883 3.796l6.991-5.05a3.027 3.027 0 0 0-.014-1.155c-.181-.932-.73-1.9-1.486-2.708-.76-.812-1.72-1.453-2.723-1.728a3.719 3.719 0 0 0-1.478-.115l-4.69 6.44-.002-.001a.428.428 0 0 1-.04.049l-.441.472Z" fill="#fff"/></g><defs><clipPath id="a"><path fill="#fff" d="M0 0h25v25H0z"/></clipPath></defs></svg>