<svg width="30" height="30" fill="none" xmlns="http://www.w3.org/2000/svg"><g clip-path="url(#a)"><path fill-rule="evenodd" clip-rule="evenodd" d="M15 0a15 15 0 1 1 0 30 15 15 0 0 1 0-30ZM7.502 9.277l7.635 6.219 7.302-6.219H7.502ZM7.014 19.75l5.437-5.455L7.01 9.861v9.883l.005.005Zm6.03-4.966-5.603 5.615h15.071l-5.356-5.615-1.775 1.504a.383.383 0 0 1-.488 0l-1.853-1.512.004.008Zm4.698-.489 5.249 5.503V9.812l-5.25 4.473v.01Z" fill="#D8E0FF"/></g><defs><clipPath id="a"><path fill="#fff" d="M0 0h30v30H0z"/></clipPath></defs></svg>