<svg width="30" height="31" fill="none" xmlns="http://www.w3.org/2000/svg"><g clip-path="url(#a)"><path fill-rule="evenodd" clip-rule="evenodd" d="M15 .384c-8.283 0-15 6.72-15 15.009 0 6.632 4.297 12.256 10.258 14.241.75.14 1.025-.326 1.025-.723 0-.358-.015-1.54-.02-2.793-4.174.908-5.054-1.772-5.054-1.772-.682-1.735-1.665-2.196-1.665-2.196-1.361-.932.103-.912.103-.912 1.506.105 2.3 1.546 2.3 1.546 1.338 2.294 3.51 1.63 4.365 1.247.135-.97.522-1.632.952-2.007-3.332-.379-6.834-1.666-6.834-7.418 0-1.638.587-2.977 1.545-4.028-.156-.379-.67-1.904.144-3.971 0 0 1.26-.404 4.127 1.538 1.196-.332 2.478-.5 3.752-.505 1.275.006 2.56.173 3.758.505 2.863-1.941 4.121-1.538 4.121-1.538.816 2.067.304 3.594.148 3.971.962 1.05 1.544 2.39 1.544 4.028 0 5.765-3.51 7.033-6.85 7.404.539.466 1.02 1.38 1.02 2.778 0 2.008-.018 3.625-.018 4.119 0 .4.27.866 1.031.72 5.957-1.987 10.249-7.611 10.249-14.24C30 7.1 23.285.38 15 .38l-.002.005Z" fill="#000444"/></g><defs><clipPath id="a"><path fill="#fff" transform="translate(0 .01)" d="M0 0h30v30.018H0z"/></clipPath></defs></svg>