<svg width="30" height="30" fill="none" xmlns="http://www.w3.org/2000/svg"><g clip-path="url(#a)"><path fill-rule="evenodd" clip-rule="evenodd" d="M15.005 0c8.28 0 15.004 6.715 15.004 15.005 0 8.28-6.715 15.004-15.005 15.004C6.725 30.009 0 23.294 0 15.004 0 6.725 6.715 0 15.005 0Zm-1.936 12.025h3.079V13.6h.045c.432-.774 1.476-1.575 3.042-1.575 3.25 0 3.852 2.025 3.852 4.654v5.364h-3.213v-4.752c0-1.134-.027-2.593-1.674-2.593-1.674 0-1.926 1.234-1.926 2.512v4.833H13.06V12.025h.01Zm-2.223-2.781c0 .918-.747 1.674-1.674 1.674a1.677 1.677 0 0 1-1.674-1.674c0-.918.747-1.674 1.674-1.674.918 0 1.674.747 1.674 1.674Zm-3.34 2.781h3.34v10.018h-3.34V12.025Z" fill="#000444"/></g><defs><clipPath id="a"><path fill="#fff" d="M0 0h30v30H0z"/></clipPath></defs></svg>