<svg width="246" height="64" fill="none" xmlns="http://www.w3.org/2000/svg"><path d="M0 52.774h99v1H0v-1ZM124.977 28.4h1.289v25.023c0 2.158-.383 4.026-1.149 5.605-.765 1.595-1.867 2.822-3.305 3.682-1.421.86-3.132 1.29-5.132 1.29-1.235 0-2.368-.18-3.399-.54a9.547 9.547 0 0 1-2.765-1.524 11.372 11.372 0 0 1-2.133-2.204l.89-.844c.985 1.235 2.063 2.188 3.235 2.86 1.187.673 2.562 1.009 4.125 1.009 1.844 0 3.383-.383 4.617-1.15 1.234-.765 2.164-1.852 2.789-3.259.625-1.391.938-3.033.938-4.925V28.4Zm-18.141 12.922v-.492c0-2.002.211-3.792.633-5.37.437-1.596 1.062-2.948 1.875-4.058.828-1.126 1.836-1.986 3.023-2.58 1.188-.594 2.531-.89 4.031-.89 1.375 0 2.602.21 3.68.632a8.675 8.675 0 0 1 2.86 1.783 9.68 9.68 0 0 1 2.015 2.65 14.13 14.13 0 0 1 1.219 3.306v10.343a9.948 9.948 0 0 1-1.078 2.884 8.937 8.937 0 0 1-1.992 2.44c-.813.703-1.782 1.258-2.907 1.664-1.125.407-2.406.61-3.843.61-1.5 0-2.844-.305-4.032-.915-1.172-.625-2.164-1.508-2.976-2.65-.813-1.141-1.438-2.501-1.875-4.08-.422-1.58-.633-3.338-.633-5.277Zm1.289-.492v.492c0 1.689.164 3.244.492 4.667.344 1.423.852 2.658 1.524 3.705a7.453 7.453 0 0 0 2.578 2.416c1.031.578 2.234.868 3.609.868 1.781 0 3.289-.313 4.524-.938 1.234-.626 2.218-1.462 2.953-2.51a9.619 9.619 0 0 0 1.523-3.47v-8.912a16.558 16.558 0 0 0-.797-2.533 9.463 9.463 0 0 0-1.547-2.603c-.672-.829-1.546-1.501-2.625-2.017-1.062-.532-2.39-.797-3.984-.797-1.391 0-2.609.289-3.656.867-1.031.579-1.891 1.392-2.578 2.44-.672 1.031-1.18 2.258-1.524 3.681-.328 1.407-.492 2.955-.492 4.644ZM150.289 49.014v-13.11c0-1.406-.305-2.61-.914-3.61-.594-1.001-1.469-1.768-2.625-2.3-1.141-.53-2.539-.796-4.195-.796-1.532 0-2.914.273-4.149.82-1.218.532-2.187 1.267-2.906 2.205a5.148 5.148 0 0 0-1.055 3.166l-1.265-.047c0-.985.226-1.923.679-2.814a7.782 7.782 0 0 1 1.946-2.369c.843-.688 1.836-1.227 2.976-1.618 1.157-.407 2.414-.61 3.774-.61 1.765 0 3.32.297 4.664.891 1.359.594 2.422 1.486 3.187 2.674.766 1.188 1.149 2.673 1.149 4.456v12.71c0 .907.054 1.822.164 2.744.125.923.289 1.642.492 2.158v.211h-1.453c-.156-.61-.274-1.345-.352-2.204a28.812 28.812 0 0 1-.117-2.557Zm.563-9.404.046 1.29h-6.609c-1.641 0-3.109.164-4.406.492-1.297.313-2.399.759-3.305 1.337-.906.579-1.601 1.267-2.086 2.064a5.008 5.008 0 0 0-.726 2.65c0 1.016.273 1.947.82 2.79.562.845 1.336 1.517 2.32 2.018.985.5 2.117.75 3.399.75 1.781 0 3.359-.29 4.734-.868 1.375-.594 2.539-1.422 3.492-2.486.953-1.063 1.68-2.321 2.18-3.775l.562 1.172c-.296.876-.742 1.744-1.335 2.604-.579.844-1.321 1.618-2.227 2.321-.906.688-1.977 1.243-3.211 1.665-1.219.407-2.617.61-4.195.61-1.578 0-2.953-.29-4.125-.868-1.172-.594-2.078-1.407-2.719-2.439-.641-1.047-.961-2.243-.961-3.588 0-1.125.266-2.157.797-3.095.531-.954 1.297-1.775 2.297-2.463 1.015-.703 2.25-1.243 3.703-1.618 1.453-.375 3.094-.563 4.922-.563h6.633ZM159.688 17.753h1.265v36.022h-1.265V17.753Zm19.429 23.077v.492c0 1.939-.219 3.698-.656 5.277-.422 1.579-1.039 2.939-1.852 4.08-.812 1.142-1.812 2.025-3 2.65-1.171.61-2.507.915-4.007.915-1.422 0-2.704-.203-3.844-.61-1.125-.406-2.102-.961-2.93-1.665a9.337 9.337 0 0 1-2.016-2.439 9.977 9.977 0 0 1-1.078-2.884V36.303c.282-1.188.688-2.29 1.219-3.306a10.086 10.086 0 0 1 2.039-2.65 8.675 8.675 0 0 1 2.86-1.783c1.093-.422 2.328-.633 3.703-.633 1.5 0 2.843.297 4.031.891 1.187.594 2.187 1.454 3 2.58.828 1.11 1.453 2.462 1.875 4.057.437 1.58.656 3.37.656 5.37Zm-1.312.492v-.492c0-1.689-.172-3.237-.516-4.644-.328-1.423-.836-2.65-1.523-3.682-.672-1.047-1.524-1.86-2.555-2.439-1.031-.578-2.242-.867-3.633-.867-1.594 0-2.93.265-4.008.797-1.078.516-1.953 1.188-2.625 2.017a9.965 9.965 0 0 0-1.57 2.603 16.67 16.67 0 0 0-.797 2.533v8.911a9.603 9.603 0 0 0 1.524 3.471c.75 1.048 1.75 1.884 3 2.51 1.25.625 2.757.938 4.523.938 1.391 0 2.594-.29 3.609-.868a7.251 7.251 0 0 0 2.555-2.416c.672-1.047 1.172-2.282 1.5-3.705.344-1.423.516-2.978.516-4.667ZM187.297 53.775h-1.266V28.4h1.266v25.375Zm10.055-25.586-.141 1.126c-.25-.032-.516-.063-.797-.094a7.225 7.225 0 0 0-.844-.047c-1.422 0-2.672.29-3.75.868a7.829 7.829 0 0 0-2.672 2.392c-.703 1.016-1.234 2.189-1.593 3.518-.344 1.313-.516 2.72-.516 4.221l-.844.07c0-1.782.188-3.424.563-4.925.39-1.5.969-2.798 1.734-3.893a8.133 8.133 0 0 1 2.93-2.58c1.187-.609 2.57-.914 4.148-.914.391 0 .735.024 1.032.07.296.047.546.11.75.188ZM203.68 28.4v25.375h-1.266V28.4h1.266Zm-1.922-7.927c0-.36.125-.664.375-.914.25-.266.555-.399.914-.399s.664.133.914.399c.266.25.398.555.398.914 0 .36-.132.665-.398.915-.25.25-.555.375-.914.375s-.664-.125-.914-.375a1.245 1.245 0 0 1-.375-.915ZM221.117 54.244c-1.547 0-2.992-.305-4.336-.915a10.963 10.963 0 0 1-3.539-2.626c-1.015-1.126-1.812-2.455-2.39-3.987-.563-1.548-.844-3.244-.844-5.089v-1.032c0-1.86.273-3.557.82-5.089.563-1.548 1.328-2.885 2.297-4.01.984-1.141 2.117-2.017 3.398-2.627a9.284 9.284 0 0 1 4.125-.938c1.407 0 2.696.266 3.868.797a8.857 8.857 0 0 1 3.046 2.205c.876.954 1.547 2.095 2.016 3.424.469 1.329.703 2.799.703 4.409v1.477h-19.453v-1.266h18.188v-.305c0-1.704-.344-3.268-1.032-4.69-.687-1.439-1.656-2.596-2.906-3.471-1.25-.876-2.726-1.313-4.43-1.313-1.406 0-2.687.297-3.843.89a9.083 9.083 0 0 0-2.953 2.463c-.829 1.032-1.469 2.236-1.922 3.612-.438 1.376-.657 2.853-.657 4.432v1.032c0 1.58.25 3.056.75 4.432a11.762 11.762 0 0 0 2.086 3.635 9.995 9.995 0 0 0 3.118 2.44 8.86 8.86 0 0 0 3.89.867c1.453 0 2.805-.242 4.055-.727 1.266-.485 2.422-1.407 3.469-2.767l.89.633a10.113 10.113 0 0 1-2.039 2.134c-.781.61-1.703 1.094-2.765 1.454-1.047.344-2.25.516-3.61.516ZM237.758 17.753v36.022h-1.266V17.753h1.266Z" fill="#333EE2"/><path d="m11.367 30.347 4.992-19.958h8.32l-8.296 25.375H11.46l-.094-5.417ZM8.414 10.389l4.922 19.958-.047 5.417H8.344L.07 10.389h8.344ZM35.367 10.39v25.374h-7.922V10.389h7.922Zm-8.39-6.544c0-1.126.406-2.048 1.218-2.767C29.008.359 30.062 0 31.36 0c1.297 0 2.352.36 3.164 1.079.813.719 1.22 1.641 1.22 2.767s-.407 2.048-1.22 2.767c-.812.72-1.867 1.08-3.164 1.08-1.297 0-2.351-.36-3.164-1.08-.812-.719-1.218-1.641-1.218-2.767ZM53.602 10.39v5.487H38.32v-5.488h15.282Zm-12.07-6.31h7.898v23.405c0 .673.078 1.197.234 1.572.156.36.422.617.797.774.39.14.906.21 1.547.21.453 0 .828-.007 1.125-.023.297-.03.578-.07.844-.117v5.652c-.672.219-1.375.383-2.11.492-.734.125-1.515.188-2.344.188-1.687 0-3.132-.266-4.336-.797a5.655 5.655 0 0 1-2.718-2.51c-.625-1.141-.938-2.626-.938-4.456V4.08ZM55.055 23.335v-.493c0-1.86.265-3.572.797-5.136.53-1.579 1.312-2.947 2.343-4.104 1.032-1.157 2.305-2.056 3.82-2.697 1.516-.657 3.266-.985 5.25-.985 2 0 3.758.328 5.274.985 1.531.641 2.813 1.54 3.844 2.697 1.031 1.157 1.812 2.525 2.344 4.104.53 1.564.796 3.276.796 5.136v.493c0 1.844-.265 3.556-.796 5.136-.532 1.563-1.313 2.931-2.344 4.104-1.031 1.156-2.305 2.055-3.82 2.697-1.516.64-3.266.961-5.25.961-1.985 0-3.743-.32-5.274-.961-1.531-.642-2.812-1.54-3.844-2.697-1.03-1.173-1.812-2.541-2.343-4.105-.532-1.579-.797-3.29-.797-5.135Zm7.898-.493v.493c0 .953.07 1.844.211 2.673.14.829.375 1.556.703 2.181.328.61.774 1.087 1.336 1.43.563.345 1.266.517 2.11.517.828 0 1.515-.172 2.062-.516a3.686 3.686 0 0 0 1.336-1.43c.328-.626.562-1.353.703-2.182.14-.829.211-1.72.211-2.673v-.493c0-.922-.07-1.79-.21-2.603-.142-.829-.376-1.556-.704-2.181a3.782 3.782 0 0 0-1.336-1.501c-.563-.36-1.266-.54-2.11-.54-.828 0-1.523.18-2.085.54-.547.36-.985.86-1.313 1.5-.328.626-.562 1.353-.703 2.182-.14.813-.21 1.68-.21 2.603ZM91.008 16.674v19.09h-7.899V10.389h7.383l.516 6.285Zm7.5-6.473-.14 7.341c-.313-.031-.735-.07-1.266-.117-.532-.047-.977-.07-1.336-.07-.922 0-1.72.109-2.391.328-.656.203-1.203.516-1.64.938-.422.406-.735.922-.938 1.548-.188.625-.274 1.352-.258 2.18l-1.43-.938c0-1.704.164-3.252.493-4.643.343-1.407.828-2.619 1.453-3.635.625-1.032 1.382-1.821 2.273-2.369.89-.563 1.89-.844 3-.844.39 0 .774.024 1.149.07a5.7 5.7 0 0 1 1.03.211ZM104 7.747h142v1H104v-1Z" fill="#141414"/></svg>