<svg width="30" height="30" fill="none" xmlns="http://www.w3.org/2000/svg"><path fill-rule="evenodd" clip-rule="evenodd" d="M30 22.387c0 .164-.005.52-.015.796-.024.673-.078 1.542-.158 1.937a6.43 6.43 0 0 1-.544 1.624 5.768 5.768 0 0 1-2.544 2.542 6.46 6.46 0 0 1-1.633.544c-.392.08-1.255.131-1.923.155-.276.01-.633.015-.796.015H7.615c-.164 0-.52-.005-.795-.015-.674-.024-1.542-.078-1.938-.158a6.464 6.464 0 0 1-1.624-.544 5.772 5.772 0 0 1-2.544-2.547 6.457 6.457 0 0 1-.544-1.633c-.08-.392-.131-1.255-.155-1.923-.01-.275-.015-.632-.015-.797V7.61c0-.164.005-.52.015-.795.027-.672.08-1.543.16-1.936.109-.563.292-1.11.544-1.625A5.777 5.777 0 0 1 3.264.714 6.458 6.458 0 0 1 4.897.17C5.289.09 6.152.039 6.82.015 7.095.005 7.452 0 7.617 0H22.39c.164 0 .52.005.795.015.672.027 1.543.08 1.936.16.563.109 1.11.292 1.624.544a5.777 5.777 0 0 1 2.542 2.545 6.46 6.46 0 0 1 .544 1.633c.08.392.131 1.254.155 1.923.01.275.015.632.015.795v14.772Z" fill="#D8E0FF"/><path fill-rule="evenodd" clip-rule="evenodd" d="M22.24 7.715a10.101 10.101 0 0 0-7.2-2.985c-5.606 0-10.174 4.565-10.174 10.177a10.164 10.164 0 0 0 1.36 5.087L4.78 25.268l5.396-1.416a10.17 10.17 0 0 0 4.863 1.24h.004c5.61 0 10.177-4.565 10.177-10.177a10.122 10.122 0 0 0-2.983-7.198l.002-.002Zm-7.198 15.664a8.446 8.446 0 0 1-4.308-1.18l-.31-.185-3.201.838.855-3.122-.2-.32a8.396 8.396 0 0 1-1.296-4.5c0-4.667 3.795-8.465 8.465-8.465a8.457 8.457 0 0 1 8.456 8.466c-.004 4.668-3.799 8.464-8.461 8.464v.004Zm4.638-6.34c-.253-.129-1.505-.742-1.737-.827-.233-.085-.402-.129-.575.129-.172.257-.657.826-.806.996-.149.17-.296.192-.549.064-.253-.13-1.075-.397-2.046-1.264-.755-.674-1.266-1.508-1.415-1.758-.149-.25-.017-.393.113-.517.117-.113.253-.296.38-.445.13-.149.17-.253.254-.426.084-.172.043-.317-.02-.445-.064-.128-.575-1.38-.782-1.89-.205-.498-.417-.429-.574-.437-.156-.009-.317-.008-.486-.008a.938.938 0 0 0-.677.317c-.235.253-.891.87-.891 2.122 0 1.252.91 2.461 1.038 2.632.128.17 1.794 2.74 4.344 3.84a16.4 16.4 0 0 0 1.449.538c.518.156 1.066.19 1.6.1.49-.072 1.505-.615 1.718-1.208.213-.594.213-1.103.15-1.208-.064-.105-.23-.176-.486-.306l-.002.001Z" fill="#000444"/></svg>