<svg width="105" height="65" viewBox="0 0 105 65" fill="none" xmlns="http://www.w3.org/2000/svg">
<path d="M28.294 59.204C27.7207 59.204 27.2907 58.9173 27.004 58.344C26.7173 57.5986 26.3447 56.624 25.886 55.42C25.4847 54.216 25.112 53.184 24.768 52.324L8.686 10.872C8.11267 9.32396 7.33867 8.03396 6.364 7.00196C5.38933 5.91263 4.128 5.16729 2.58 4.76596C1.77733 4.4793 1.14667 4.2213 0.688 3.99196C0.229333 3.7053 0 3.33263 0 2.87396C0 2.47263 0.200667 2.21463 0.602 2.09996C1.06067 1.92796 1.60533 1.84196 2.236 1.84196C3.268 1.84196 4.386 1.87063 5.59 1.92796C6.85133 1.9853 8.17 2.04263 9.546 2.09996C10.922 2.09996 12.2407 2.09996 13.502 2.09996C14.6487 2.09996 15.8527 2.07129 17.114 2.01396C18.4327 1.95663 19.694 1.92796 20.898 1.92796C22.102 1.87063 23.1053 1.84196 23.908 1.84196C24.5387 1.84196 25.0833 1.92796 25.542 2.09996C26.058 2.27196 26.316 2.52996 26.316 2.87396C26.316 3.33263 26.058 3.73396 25.542 4.07796C25.0833 4.36463 24.4527 4.5653 23.65 4.67996C21.9873 4.90929 20.6687 5.28196 19.694 5.79796C18.7193 6.31396 18.232 7.05929 18.232 8.03396C18.232 8.7793 18.318 9.4673 18.49 10.098C18.7193 10.7286 18.8913 11.2446 19.006 11.646L30.96 43.724C31.0747 44.0106 31.218 44.1826 31.39 44.24C31.562 44.2973 31.734 44.0966 31.906 43.638L43 14.312C44.1467 11.3306 44.2613 9.06596 43.344 7.51796C42.484 5.91263 41.022 4.9953 38.958 4.76596C38.1553 4.65129 37.496 4.45063 36.98 4.16396C36.464 3.81996 36.206 3.41863 36.206 2.95996C36.206 2.61596 36.4353 2.35796 36.894 2.18596C37.41 2.01396 38.012 1.92796 38.7 1.92796C39.6173 1.92796 40.506 1.95663 41.366 2.01396C42.226 2.01396 43.1147 2.04263 44.032 2.09996C44.9493 2.09996 45.9813 2.09996 47.128 2.09996C48.7907 2.09996 50.482 2.04263 52.202 1.92796C53.9793 1.81329 55.4987 1.75596 56.76 1.75596C57.5053 1.75596 58.1073 1.84196 58.566 2.01396C59.082 2.12863 59.34 2.41529 59.34 2.87396C59.34 3.2753 59.082 3.6193 58.566 3.90596C58.1073 4.1353 57.4767 4.36463 56.674 4.59396C54.6673 5.05263 52.976 5.99863 51.6 7.43196C50.2813 8.80796 49.2493 10.442 48.504 12.334L33.454 48.798C33.0527 49.7153 32.6227 50.7473 32.164 51.894C31.7053 53.0406 31.2467 54.1873 30.788 55.334C30.3867 56.4233 29.9567 57.4266 29.498 58.344C29.3833 58.6306 29.2113 58.8313 28.982 58.946C28.81 59.118 28.5807 59.204 28.294 59.204Z" fill="white"/>
<path d="M79.336 0.907959C83.0627 0.907959 86.0727 1.48129 88.366 2.62796C90.6593 3.7173 92.8093 5.0073 94.816 6.49796C95.5613 7.0713 96.1347 7.35796 96.536 7.35796C97.6253 7.35796 98.342 5.6093 98.686 2.11196H100.664C100.549 4.2333 100.463 6.8133 100.406 9.85196C100.349 12.8906 100.32 16.904 100.32 21.892H98.342C97.9407 19.484 97.4533 17.162 96.88 14.926C96.3067 12.69 95.3607 10.7693 94.042 9.16396C92.3793 7.04263 90.2007 5.40863 87.506 4.26196C84.8113 3.05796 82.0307 2.45596 79.164 2.45596C76.2973 2.45596 73.6887 3.17263 71.338 4.60596C69.0447 5.98196 67.0667 7.98863 65.404 10.626C63.7413 13.2633 62.4513 16.4453 61.534 20.172C60.674 23.8413 60.244 27.998 60.244 32.642C60.244 42.962 61.9067 50.53 65.232 55.346C68.5573 60.1046 73.7173 62.484 80.712 62.484C82.776 62.484 84.5533 62.1973 86.044 61.624C87.592 60.9933 88.796 60.3913 89.656 59.818C90.7453 59.0726 91.4333 58.3846 91.72 57.754C92.0067 57.066 92.15 56.1773 92.15 55.088V46.832C92.15 44.4813 91.9207 42.7326 91.462 41.586C91.0033 40.4393 90.1433 39.6653 88.882 39.264C87.678 38.8626 85.872 38.6333 83.464 38.576V36.856C84.496 36.9133 85.7 36.9706 87.076 37.028C88.452 37.028 89.8853 37.0566 91.376 37.114C92.924 37.114 94.3287 37.114 95.59 37.114C97.482 37.114 99.1733 37.0853 100.664 37.028C102.212 36.9706 103.502 36.9133 104.534 36.856V38.576C103.273 38.6333 102.327 38.834 101.696 39.178C101.065 39.522 100.635 40.21 100.406 41.242C100.234 42.274 100.148 43.8506 100.148 45.972V63H98.428C98.3707 62.0253 98.1413 60.9646 97.74 59.818C97.396 58.6713 96.8513 58.098 96.106 58.098C95.762 58.098 95.418 58.184 95.074 58.356C94.73 58.528 94.128 58.9293 93.268 59.56C91.376 60.9933 89.3693 62.14 87.248 63C85.1267 63.8026 82.6613 64.204 79.852 64.204C73.9467 64.204 68.8727 63 64.63 60.592C60.4447 58.1266 57.234 54.6006 54.998 50.014C52.762 45.4273 51.644 39.952 51.644 33.588C51.644 26.88 52.848 21.0893 55.256 16.216C57.664 11.3426 60.932 7.5873 65.06 4.94996C69.2453 2.25529 74.004 0.907959 79.336 0.907959Z" fill="white"/>
</svg>
